<?xml version="1.0" encoding="utf-8"?><svg viewBox="0 0 448 512" xmlns="http://www.w3.org/2000/svg" xmlns:xlink="http://www.w3.org/1999/xlink"><style>:root>svg{display:none}:root>svg:target{display:block}</style><svg viewBox="0 0 448 512" id="arrow" xmlns="http://www.w3.org/2000/svg"><!--! Font Awesome Pro 6.4.0 by @fontawesome - https://fontawesome.com License - https://fontawesome.com/license (Commercial License) Copyright 2023 Fonticons, Inc.--><path d="M438.6 278.6c12.5-12.5 12.5-32.8 0-45.3l-160-160c-12.5-12.5-32.8-12.5-45.3 0s-12.5 32.8 0 45.3L338.8 224H32c-17.7 0-32 14.3-32 32s14.3 32 32 32h306.7L233.4 393.4c-12.5 12.5-12.5 32.8 0 45.3s32.8 12.5 45.3 0l160-160z"/></svg><svg viewBox="0 0 30 17" id="arrow-down" xmlns="http://www.w3.org/2000/svg"><path d="M1 1.706l14 14 14-14"/></svg><svg viewBox="0 0 30 17" id="arrow-up" xmlns="http://www.w3.org/2000/svg"><path d="M1 15.706l14-14 14 14"/></svg><svg viewBox="0 0 314.652 314.652" id="fb" xmlns="http://www.w3.org/2000/svg"><path d="M157.326 0C70.576 0 0 70.576 0 157.326s70.576 157.326 157.326 157.326 157.326-70.576 157.326-157.326S244.076 0 157.326 0zm0 296.652C80.501 296.652 18 234.15 18 157.326S80.501 18 157.326 18s139.326 62.502 139.326 139.326-62.501 139.326-139.326 139.326z"/><path d="M193.764 71.952H172.43c-17.461 0-31.667 14.206-31.667 31.667v24h-19.875c-4.971 0-9 4.029-9 9s4.029 9 9 9h19.875v83.333c0 4.971 4.029 9 9 9s9-4.029 9-9v-83.333h30.75c4.971 0 9-4.029 9-9s-4.029-9-9-9h-30.75v-24c0-7.536 6.131-13.667 13.667-13.667h21.333c4.971 0 9-4.029 9-9s-4.029-9-8.999-9z"/></svg><svg viewBox="0 0 50 50" id="instagram" xmlns="http://www.w3.org/2000/svg"><path d="M16 3C8.832 3 3 8.832 3 16v18c0 7.168 5.832 13 13 13h18c7.168 0 13-5.832 13-13V16c0-7.168-5.832-13-13-13H16zm0 2h18c6.086 0 11 4.914 11 11v18c0 6.086-4.914 11-11 11H16C9.914 45 5 40.086 5 34V16C5 9.914 9.914 5 16 5zm21 6a2 2 0 00-2 2 2 2 0 002 2 2 2 0 002-2 2 2 0 00-2-2zm-12 3c-6.063 0-11 4.937-11 11s4.937 11 11 11 11-4.937 11-11-4.937-11-11-11zm0 2c4.982 0 9 4.018 9 9s-4.018 9-9 9-9-4.018-9-9 4.018-9 9-9z"/></svg><svg viewBox="0 0 50 50" id="vk" xmlns="http://www.w3.org/2000/svg"><path d="M25 2C12.31 2 2 12.31 2 25s10.31 23 23 23 23-10.31 23-23S37.69 2 25 2zm0 2c11.61 0 21 9.39 21 21s-9.39 21-21 21S4 36.61 4 25 13.39 4 25 4zm-9.998 14l-4.035.002s-.231-.013-.51.023c-.279.037-.69.054-1.113.532l-.002.002-.002.002c-.376.43-.362.93-.315 1.205.047.274.152.479.153.48v.002c.039.095 2.968 7.274 6.662 11.13C18.445 34.102 21.23 35 23.713 35H25c.423 0 .802-.02 1.22-.236.42-.217.78-.816.78-1.282 0-.5.012-.987.076-1.257.06-.253.037-.191.06-.192a.7.7 0 01.151.053c.179.08.454.26.76.498.61.474 1.334 1.162 2.144 1.693 1.162.77 2.422.723 2.422.723h4.157l.044-.004s.638-.014 1.293-.416c.328-.2.717-.569.848-1.121.13-.552-.036-1.131-.357-1.64-.118-.187-.687-1.013-2.961-3.032-.588-.52-.988-.89-1.147-1.086-.056-.07-.06-.063-.072-.066.013-.034.145-.311.496-.768.366-.476.923-1.14 1.639-2.05.912-1.163 1.552-2.28 1.955-3.223.201-.472.344-.9.43-1.287.085-.388.153-.71.027-1.17a1.497 1.497 0 00-.602-.81 1.837 1.837 0 00-.695-.263c-.42-.078-.791-.064-1.137-.064-.724 0-3.941.025-4.207.025-.311 0-.809.13-1.039.262-.571.327-.75.776-.75.776l-.055.095-.03.108s-.733 2.37-1.487 3.591h-.002c-.886 1.44-1.547 2.01-1.838 2.172l-.035.02a1.395 1.395 0 01-.07-.326c-.043-.38-.018-.916-.018-1.434 0-1.434.108-2.329-.012-3.176-.06-.423-.211-.895-.558-1.258-.347-.362-.795-.54-1.242-.644h-.002c-.467-.107-.97-.2-2.176-.211-1.538-.014-2.54.033-3.43.43l-.01.006-.008.003a2.85 2.85 0 00-.873.608c-.122.126-.266.218-.367.621-.05.201-.055.582.172.89.228.31.547.402.735.426-.035-.004.147.036.289.106.14.07.263.17.294.21v.003c-.013-.017.123.32.159.627.035.307.029.554.029.554l-.002.06.006.061s.061.68.03 1.381a4.77 4.77 0 01-.12.92c-.003.012-.004.008-.008.018-.25-.175-.827-.784-1.623-2.098-.735-1.215-1.424-3.4-1.424-3.4l-.015-.049-.018-.047s-.128-.488-.695-.887c-.532-.374-1.037-.425-1.037-.425L15.002 18zm-.232 2c.057.02.176.064.199.074l-.024-.07.032.072.003.002v.002h.002c-.05-.035-.007 0-.002.008.028.094.639 2.197 1.592 3.773.869 1.435 1.51 2.239 2.211 2.72.7.479 1.641.43 2.12.18.639-.331.817-.877.94-1.331.124-.455.168-.916.188-1.352.038-.832-.027-1.512-.033-1.58.001-.038.01-.363-.041-.8-.051-.442-.143-.99-.535-1.542.439-.065.682-.164 1.568-.156 1.13.01 1.302.058 1.746.16.242.056.27.102.246.078-.022-.024-.002-.04.026.155.055.388-.008 1.384-.008 2.896 0 .426-.041 1.027.03 1.656.07.63.266 1.434 1.027 1.905.433.268 1.26.36 2.04-.075.78-.434 1.581-1.268 2.567-2.869.974-1.578 1.556-3.653 1.62-3.873l.017-.012c.017.001-.005.004.023.004.37 0 3.531-.025 4.207-.025.186 0 .268.01.407.016a5.336 5.336 0 01-.27.79c-.325.761-.883 1.748-1.69 2.776-.695.885-1.235 1.528-1.648 2.064-.413.537-.737.96-.873 1.573-.136.612.123 1.302.477 1.74.353.438.79.806 1.375 1.324 2.2 1.953 2.56 2.545 2.595 2.6v.002c.037.059.013 0 .028.03l-.287.085h-4.053s-.745-.024-1.297-.39l-.002-.003h-.002c-.585-.382-1.291-1.039-2.018-1.603-.363-.282-.733-.546-1.162-.74-.429-.194-.972-.332-1.545-.16-.828.247-1.288 1.036-1.435 1.662-.106.449-.09.84-.094 1.232C25.01 33 25.033 33 25 33h-1.287c-2.033 0-4.147-.62-6.428-3.004-2.965-3.096-5.61-9.084-6.008-9.994L14.77 20zm17.443.008c-.018.004.034.008.076.012-.006.003 0-.003-.008.001 0-.016-.044-.019-.068-.013z"/></svg><svg viewBox="0 0 20 20" id="whatsapp" xmlns="http://www.w3.org/2000/svg"><path d="M2.533 15.6l.447.224.138-.276-.185-.248-.4.3zm1.866 1.867l.3-.4-.247-.186-.276.139.223.447zM.667 19.333l-.448-.223a.5.5 0 00.671.67l-.223-.447zM6 6l-.278-.416A.5.5 0 005.5 6H6zm8 8v.5a.5.5 0 00.416-.223L14 14zM8.339 6.7l.493-.081-.493.082zm.186 1.116l-.493.083.493-.083zm-.576 1.329l.278.416-.278-.416zm5.35 2.516l.082-.493-.082.493zm-1.115-.186l-.083.493.083-.493zm-1.329.576l-.416-.278.416.278zM.167 10c0 2.213.731 4.256 1.966 5.9l.8-.6A8.792 8.792 0 011.167 10h-1zM10 .166C4.569.167.167 4.569.167 10h1A8.833 8.833 0 0110 1.167v-1zM19.833 10c0-5.43-4.402-9.833-9.833-9.833v1A8.833 8.833 0 0118.833 10h1zM10 19.833c5.43 0 9.833-4.402 9.833-9.833h-1A8.833 8.833 0 0110 18.833v1zm-5.901-1.966a9.792 9.792 0 005.9 1.966v-1a8.792 8.792 0 01-5.3-1.766l-.6.8zM.89 19.78l3.733-1.867-.447-.894-3.733 1.866.447.895zm1.196-4.404L.219 19.11l.895.447 1.866-3.733-.894-.447zM5.5 6v1.333h1V6h-1zm7.166 8.5H14v-1h-1.334v1zM5.5 7.333a7.167 7.167 0 007.166 7.167v-1A6.167 6.167 0 016.5 7.333h-1zm.777-.917l.284-.19-.554-.831-.285.19.555.831zm1.569.367l.186 1.116.986-.165-.186-1.115-.986.164zm-.174 1.946l-1.283.855.555.832 1.283-.855-.555-.832zm.36-.83a.833.833 0 01-.36.83l.555.832c.6-.4.91-1.115.791-1.827l-.986.165zm-1.47-1.672a.833.833 0 011.284.556l.986-.164a1.833 1.833 0 00-2.825-1.224l.554.832zm7.854 8.05l.19-.284-.833-.555-.19.285.833.554zm-1.035-3.11l-1.115-.185-.165.986 1.116.186.164-.986zm-2.942.606l-.855 1.283.832.555.855-1.283-.832-.555zm1.827-.791a1.833 1.833 0 00-1.827.791l.832.555a.833.833 0 01.83-.36l.165-.986zm2.34 3.011a1.833 1.833 0 00-1.225-2.825l-.164.986c.596.1.892.781.556 1.284l.832.555z"/></svg></svg>